<svg width="512" height="512" viewBox="0 0 512 512" xmlns="http://www.w3.org/2000/svg">
  <rect width="512" height="512" rx="108" fill="url(#g)"/>
  <defs><linearGradient id="g" x1="0" y1="0" x2="1" y2="1"><stop offset="0%" stop-color="#2563EB"/><stop offset="100%" stop-color="#7C3AED"/></linearGradient></defs>
  <g transform="translate(256,256)" fill="none" stroke="#fff" stroke-width="24" stroke-linecap="round" stroke-linejoin="round">
    <path d="M0-100a50 50 0 0 0-48 36A40 40 0 0 0-80-25a40 40 0 0 0 5 60A45 45 0 0 0-40 80h10"/>
    <path d="M0-100a50 50 0 0 1 48 36A40 40 0 0 1 80-25a40 40 0 0 1-5 60A45 45 0 0 1 40 80h-10"/>
    <path d="M0-100v200"/>
  </g>
</svg>
