<svg width="512" height="512" viewBox="0 0 512 512" xmlns="http://www.w3.org/2000/svg">
  <defs>
    <linearGradient id="bg" x1="0" y1="0" x2="1" y2="1">
      <stop offset="0%" stop-color="#2563EB"/>
      <stop offset="100%" stop-color="#7C3AED"/>
    </linearGradient>
    <linearGradient id="glow" x1="0.5" y1="0" x2="0.5" y2="1">
      <stop offset="0%" stop-color="#fff" stop-opacity="0.25"/>
      <stop offset="100%" stop-color="#fff" stop-opacity="0"/>
    </linearGradient>
  </defs>
  <rect width="512" height="512" rx="115" fill="url(#bg)"/>
  <rect width="512" height="256" rx="115" fill="url(#glow)"/>
  <!-- Lightbulb body (rounded) -->
  <g transform="translate(256,232)" fill="none" stroke="#fff" stroke-width="22" stroke-linecap="round" stroke-linejoin="round">
    <!-- Bulb outline -->
    <path d="M0-110 C-66-110 -90-60 -90-10 C-90 30 -60 55 -40 80 L-30 95 L30 95 L40 80 C60 55 90 30 90-10 C90-60 66-110 0-110Z" fill="rgba(255,255,255,0.08)"/>
    <!-- Filament / AI neural paths -->
    <circle cx="0" cy="-30" r="12" fill="#fff" stroke="none"/>
    <circle cx="-40" cy="10" r="8" fill="#fff" stroke="none"/>
    <circle cx="40" cy="10" r="8" fill="#fff" stroke="none"/>
    <circle cx="-20" cy="50" r="6" fill="#fff" stroke="none"/>
    <circle cx="20" cy="50" r="6" fill="#fff" stroke="none"/>
    <!-- Neural connections -->
    <line x1="0" y1="-30" x2="-40" y2="10" stroke="#fff" stroke-width="5" opacity="0.7"/>
    <line x1="0" y1="-30" x2="40" y2="10" stroke="#fff" stroke-width="5" opacity="0.7"/>
    <line x1="-40" y1="10" x2="-20" y2="50" stroke="#fff" stroke-width="5" opacity="0.7"/>
    <line x1="40" y1="10" x2="20" y2="50" stroke="#fff" stroke-width="5" opacity="0.7"/>
    <line x1="-40" y1="10" x2="20" y2="50" stroke="#fff" stroke-width="4" opacity="0.35"/>
    <line x1="40" y1="10" x2="-20" y2="50" stroke="#fff" stroke-width="4" opacity="0.35"/>
    <!-- Bulb base lines -->
    <line x1="-26" y1="105" x2="26" y2="105" stroke-width="18"/>
    <line x1="-20" y1="122" x2="20" y2="122" stroke-width="14"/>
    <!-- Rays -->
    <line x1="0" y1="-140" x2="0" y2="-155" stroke-width="14" opacity="0.5"/>
    <line x1="-70" y1="-120" x2="-82" y2="-132" stroke-width="12" opacity="0.4"/>
    <line x1="70" y1="-120" x2="82" y2="-132" stroke-width="12" opacity="0.4"/>
    <line x1="-105" y1="-30" x2="-120" y2="-30" stroke-width="12" opacity="0.35"/>
    <line x1="105" y1="-30" x2="120" y2="-30" stroke-width="12" opacity="0.35"/>
  </g>
</svg>
